<?xml version="1.0" standalone="no"?>
<!DOCTYPE svg PUBLIC "-//W3C//DTD SVG 20010904//EN"
 "http://www.w3.org/TR/2001/REC-SVG-20010904/DTD/svg10.dtd">
<svg version="1.0" xmlns="http://www.w3.org/2000/svg"
 width="800.000000pt" height="800.000000pt" viewBox="0 0 800.000000 800.000000"
 preserveAspectRatio="xMidYMid meet">
<metadata>
Created by potrace 1.11, written by Peter Selinger 2001-2013
</metadata>
<g transform="translate(0.000000,800.000000) scale(0.100000,-0.100000)"
fill="#000000" stroke="none">
<path d="M2218 5549 c-10 -5 -48 -12 -85 -16 -38 -3 -78 -12 -90 -19 -12 -8
-35 -14 -51 -14 -15 0 -37 -7 -48 -15 -10 -8 -26 -15 -34 -15 -8 0 -27 -6 -42
-14 -15 -8 -40 -17 -57 -21 -16 -3 -35 -13 -42 -21 -6 -8 -17 -14 -24 -14 -6
0 -32 -11 -56 -25 -24 -14 -52 -28 -61 -31 -10 -4 -18 -10 -18 -14 0 -5 -9
-12 -20 -15 -11 -3 -26 -12 -32 -19 -7 -7 -38 -30 -68 -51 -66 -45 -264 -243
-285 -285 -9 -17 -20 -30 -25 -30 -6 0 -10 -7 -10 -15 0 -8 -5 -15 -10 -15 -6
0 -15 -10 -20 -22 -6 -13 -19 -36 -30 -53 -11 -16 -26 -42 -32 -57 -7 -16 -16
-28 -19 -28 -4 0 -10 -13 -14 -29 -3 -16 -13 -35 -21 -42 -8 -6 -14 -20 -14
-31 0 -11 -7 -26 -15 -34 -8 -9 -15 -25 -15 -38 0 -12 -7 -31 -15 -42 -8 -10
-15 -29 -15 -42 0 -12 -7 -39 -16 -60 -9 -20 -20 -59 -24 -87 -5 -27 -14 -75
-20 -105 -15 -71 -8 -446 9 -515 19 -77 53 -187 68 -222 7 -17 13 -36 13 -43
0 -7 6 -24 14 -38 7 -15 31 -63 52 -107 35 -75 64 -120 157 -252 46 -65 208
-228 268 -268 24 -16 46 -33 49 -36 11 -13 110 -79 119 -79 5 0 14 -7 21 -15
7 -8 21 -15 31 -15 11 0 19 -3 19 -8 0 -7 47 -29 155 -74 28 -11 65 -26 83
-34 18 -8 43 -14 55 -14 12 0 35 -7 51 -15 15 -8 52 -15 81 -15 29 0 69 -7 88
-15 51 -21 384 -21 442 0 22 8 58 15 80 15 22 0 53 7 69 15 15 8 38 15 50 15
11 0 34 7 50 15 15 8 35 15 43 15 8 0 47 16 87 35 40 19 77 35 81 35 5 0 16 7
25 15 26 24 133 31 161 11 13 -9 32 -16 42 -16 9 0 20 -7 23 -15 4 -10 20 -15
45 -15 28 0 39 -4 39 -15 0 -10 11 -15 35 -15 22 0 43 -8 55 -20 14 -14 34
-20 63 -20 23 0 51 -7 61 -15 12 -9 42 -15 77 -15 74 0 125 -10 107 -21 -7 -5
48 -9 130 -9 93 0 142 4 142 11 0 5 4 8 9 4 5 -3 12 -1 16 5 3 5 42 10 86 10
49 0 79 4 79 11 0 5 5 7 10 4 6 -3 10 -1 10 4 0 6 20 11 45 11 32 0 51 6 65
20 12 12 33 20 55 20 24 0 35 5 35 15 0 10 10 15 34 15 18 0 39 7 46 15 7 8
23 15 35 15 12 0 28 7 35 15 7 8 21 15 31 15 9 0 24 7 33 15 18 19 42 19 49 1
3 -8 19 -17 36 -21 17 -4 31 -11 31 -16 0 -5 5 -9 11 -9 11 0 69 -25 132 -56
16 -8 36 -14 46 -14 9 0 26 -7 37 -15 10 -8 33 -15 49 -15 17 0 42 -6 56 -14
15 -8 63 -17 108 -21 45 -4 84 -11 87 -16 7 -12 344 -12 344 0 0 5 38 12 85
16 47 4 88 11 90 15 3 5 30 12 60 15 30 4 55 11 55 15 0 4 20 13 44 19 25 6
48 15 51 21 3 5 13 10 22 10 19 0 113 43 113 52 0 3 14 9 30 13 17 4 30 10 30
14 0 3 12 12 28 18 39 17 133 81 157 107 6 6 28 23 51 38 49 32 184 177 253
273 28 39 54 75 59 80 18 24 82 137 82 146 0 6 10 29 22 52 34 65 38 76 38 90
0 7 9 29 20 50 11 20 20 48 20 61 0 13 7 40 15 59 8 20 18 61 21 92 4 30 11
58 15 61 12 7 12 444 0 444 -5 0 -12 26 -16 59 -4 32 -13 71 -21 86 -8 15 -14
40 -14 57 0 16 -9 46 -20 68 -11 22 -20 46 -20 55 0 8 -4 23 -9 33 -95 191
-123 242 -132 242 -5 0 -9 6 -9 13 0 8 -8 23 -17 35 -10 11 -25 30 -33 42 -8
12 -20 28 -26 34 -6 6 -15 19 -20 29 -19 34 -177 188 -235 229 -33 22 -59 45
-59 49 0 5 -6 9 -13 9 -8 0 -22 9 -32 20 -10 11 -24 20 -32 20 -7 0 -13 4 -13
8 0 4 -12 13 -27 20 -25 11 -65 31 -155 78 -14 8 -33 14 -41 14 -8 0 -20 7
-27 15 -7 8 -22 15 -34 15 -11 0 -33 6 -48 14 -14 8 -46 17 -70 21 -24 4 -47
11 -53 15 -5 4 -41 11 -80 15 -38 4 -80 12 -95 17 -34 14 -317 14 -360 0 -19
-6 -64 -14 -100 -17 -36 -4 -70 -11 -76 -16 -6 -5 -33 -12 -60 -15 -27 -4 -58
-13 -69 -20 -11 -8 -30 -14 -42 -14 -13 0 -23 -4 -23 -9 0 -4 -20 -14 -45 -21
-25 -7 -45 -17 -45 -21 0 -5 -8 -9 -18 -9 -10 0 -26 -6 -37 -14 -11 -7 -33
-16 -48 -20 -17 -4 -27 -12 -24 -19 3 -8 -5 -14 -19 -15 -14 -1 -27 5 -30 13
-4 8 -16 15 -29 15 -12 0 -28 7 -35 15 -7 8 -23 15 -35 15 -12 0 -28 7 -35 15
-7 8 -21 15 -31 15 -10 0 -21 5 -24 10 -4 6 -11 8 -16 5 -5 -4 -9 -2 -9 3 0 5
-20 15 -45 21 -25 6 -45 16 -45 21 0 6 -22 10 -49 10 -31 0 -53 5 -61 15 -9
11 -34 15 -94 15 -55 1 -87 5 -100 15 -28 21 -291 22 -299 1 -4 -10 -28 -14
-88 -15 -57 -1 -88 -6 -99 -16 -9 -8 -35 -15 -57 -15 -24 0 -46 -6 -53 -15 -7
-8 -25 -15 -40 -15 -15 0 -33 -6 -39 -14 -7 -8 -27 -17 -45 -20 -19 -4 -39
-13 -46 -21 -7 -8 -22 -15 -34 -15 -11 0 -30 -7 -40 -15 -30 -22 -118 -8 -196
31 -88 44 -135 64 -152 64 -8 0 -23 7 -34 15 -10 8 -34 15 -52 15 -18 0 -43 6
-55 14 -12 7 -50 16 -85 20 -35 3 -71 10 -82 16 -25 13 -409 13 -432 -1z
m2919 -485 c-3 -3 -12 -4 -19 -1 -8 3 -5 6 6 6 11 1 17 -2 13 -5z m160 -1920
c-3 -3 -12 -4 -19 -1 -8 3 -5 6 6 6 11 1 17 -2 13 -5z"/>
</g>
</svg>
